<svg width="39" height="39" viewBox="0 0 39 39" fill="none" xmlns="http://www.w3.org/2000/svg">
<path d="M7.26758 25.4093V19.0764C7.26758 16.7575 8.18874 14.5337 9.82841 12.894C11.4681 11.2543 13.692 10.3332 16.0108 10.3332H16.1625C18.4814 10.3332 20.7053 11.2543 22.3449 12.894C23.9846 14.5337 24.9058 16.7575 24.9058 19.0764V25.4083" stroke="#131313" stroke-width="1.5" stroke-miterlimit="10"/>
<path d="M20.6597 25.4093H24.317C25.1306 25.4093 25.9109 25.7325 26.4863 26.3078C27.0616 26.8832 27.3848 27.6635 27.3848 28.4772V28.536C27.385 28.9389 27.3057 29.3379 27.1516 29.7102C26.9975 30.0825 26.7715 30.4207 26.4866 30.7056C26.2017 30.9905 25.8634 31.2165 25.4911 31.3706C25.1189 31.5247 24.7199 31.604 24.317 31.6039H7.68213C7.27921 31.604 6.88022 31.5247 6.50795 31.3706C6.13567 31.2165 5.79742 30.9905 5.51251 30.7056C5.22761 30.4207 5.00163 30.0825 4.84751 29.7102C4.69338 29.3379 4.61412 28.9389 4.61426 28.536V28.4772C4.61426 27.6635 4.93748 26.8832 5.51281 26.3078C6.08815 25.7325 6.86848 25.4093 7.68213 25.4093H11.1629" stroke="#131313" stroke-width="1.5" stroke-miterlimit="10" stroke-linecap="round"/>
<path d="M19.4797 31.6028C19.567 32.1006 19.5444 32.6114 19.4133 33.0994C19.2822 33.5875 19.0459 34.0409 18.7209 34.4279C18.396 34.8148 17.9902 35.126 17.5322 35.3395C17.0742 35.5529 16.5749 35.6636 16.0696 35.6636C15.5643 35.6636 15.0651 35.5529 14.607 35.3395C14.149 35.126 13.7433 34.8148 13.4183 34.4279C13.0933 34.0409 12.857 33.5875 12.7259 33.0994C12.5948 32.6114 12.5722 32.1006 12.6596 31.6028" stroke="#131313" stroke-width="1.5" stroke-miterlimit="10"/>
<circle cx="28.5" cy="10.5" r="9.25" fill="#D0565C" stroke="#F9F9F9" stroke-width="2.5"/>
<path d="M28.196 14H29.804V5.42H28.376L26.384 6.836V8.24L28.196 7.004V14Z" fill="white"/>
</svg>
