<svg width="155" height="140" viewBox="0 0 155 140" fill="none" xmlns="http://www.w3.org/2000/svg">
<path d="M130.781 139.863H24.2188C10.8645 139.863 0 128.999 0 115.645C0 102.29 10.8645 91.4258 24.2188 91.4258H130.781C144.135 91.4258 155 102.29 155 115.645C155 128.999 144.135 139.863 130.781 139.863Z" fill="#DFDAE0"/>
<path d="M62.3633 123.213C66.5432 123.213 69.9316 119.824 69.9316 115.645C69.9316 111.465 66.5432 108.076 62.3633 108.076C58.1834 108.076 54.7949 111.465 54.7949 115.645C54.7949 119.824 58.1834 123.213 62.3633 123.213Z" fill="#6D737F"/>
<path d="M32.0898 123.213C36.2697 123.213 39.6582 119.824 39.6582 115.645C39.6582 111.465 36.2697 108.076 32.0898 108.076C27.91 108.076 24.5215 111.465 24.5215 115.645C24.5215 119.824 27.91 123.213 32.0898 123.213Z" fill="#6D737F"/>
<path d="M95.6641 39.9609H59.3359C56.8281 39.9609 54.7949 37.9278 54.7949 35.4199V22.7051C54.7949 10.1855 64.9804 0 77.5 0C90.0196 0 100.205 10.1855 100.205 22.7051V35.4199C100.205 37.9278 98.1719 39.9609 95.6641 39.9609ZM63.877 30.8789H91.123V22.7051C91.123 15.1933 85.0117 9.08203 77.5 9.08203C69.9883 9.08203 63.877 15.1933 63.877 22.7051V30.8789Z" fill="#6D737F"/>
<path d="M106.26 75.9863H48.7402C46.2324 75.9863 44.1992 73.9532 44.1992 71.4453V35.4199C44.1992 32.9121 46.2324 30.8789 48.7402 30.8789H106.26C108.768 30.8789 110.801 32.9121 110.801 35.4199V71.4453C110.801 73.9532 108.768 75.9863 106.26 75.9863Z" fill="#FFAC2B"/>
<path d="M85.0684 50.5566C85.0684 48.0488 83.0352 46.0156 80.5273 46.0156H74.4727C71.9648 46.0156 69.9316 48.0488 69.9316 50.5566C69.9316 52.5329 71.1965 54.2097 72.959 54.8337V56.6113C72.959 59.1192 74.9921 61.1523 77.5 61.1523C80.0079 61.1523 82.041 59.1192 82.041 56.6113V54.8337C83.8035 54.2097 85.0684 52.5329 85.0684 50.5566Z" fill="#FF981E"/>
<path d="M130.781 91.4258H77.5V139.863H130.781C144.135 139.863 155 128.999 155 115.645C155 102.29 144.135 91.4258 130.781 91.4258Z" fill="#DFDAE0"/>
<path d="M92.6367 123.213C96.8166 123.213 100.205 119.824 100.205 115.645C100.205 111.465 96.8166 108.076 92.6367 108.076C88.4568 108.076 85.0684 111.465 85.0684 115.645C85.0684 119.824 88.4568 123.213 92.6367 123.213Z" fill="#5E5F69"/>
<path d="M122.91 123.213C127.09 123.213 130.479 119.824 130.479 115.645C130.479 111.465 127.09 108.076 122.91 108.076C118.73 108.076 115.342 111.465 115.342 115.645C115.342 119.824 118.73 123.213 122.91 123.213Z" fill="#5E5F69"/>
<path d="M80.5273 46.0156H77.5V61.1523C80.0079 61.1523 82.041 59.1192 82.041 56.6113V54.8337C83.8035 54.2097 85.0684 52.5329 85.0684 50.5566C85.0684 48.0488 83.0352 46.0156 80.5273 46.0156Z" fill="#FF8512"/>
</svg>
