<svg width="98" height="98" viewBox="0 0 98 98" fill="none" xmlns="http://www.w3.org/2000/svg">
<path d="M94.5 0.25H3.5C1.70507 0.25 0.25 1.70507 0.25 3.5V65.25C0.25 67.0449 1.70507 68.5 3.5 68.5H94.5C96.2949 68.5 97.75 67.0449 97.75 65.25V3.5C97.75 1.70507 96.2949 0.25 94.5 0.25Z" fill="#D0565C"/>
<path d="M13.25 62H84.75C84.75 60.2761 85.4348 58.6228 86.6538 57.4038C87.8728 56.1848 89.5261 55.5 91.25 55.5V13.25C89.5261 13.25 87.8728 12.5652 86.6538 11.3462C85.4348 10.1272 84.75 8.47391 84.75 6.75H13.25C13.25 8.47391 12.5652 10.1272 11.3462 11.3462C10.1272 12.5652 8.47391 13.25 6.75 13.25V55.5C8.47391 55.5 10.1272 56.1848 11.3462 57.4038C12.5652 58.6228 13.25 60.2761 13.25 62Z" fill="#F2F2F2"/>
<path d="M84.8962 8.10688C84.8004 7.66091 84.7514 7.20615 84.75 6.75H13.25C13.25 8.47391 12.5652 10.1272 11.3462 11.3462C10.1272 12.5652 8.47391 13.25 6.75 13.25V55.5C8.45283 55.4984 10.0877 56.1681 11.3 57.3639H81.6462C82.5082 57.3639 83.3349 57.0215 83.9444 56.412C84.5538 55.8025 84.8962 54.9758 84.8962 54.1139V8.10688Z" fill="white"/>
<path d="M52.25 70.8709V86.375L45.75 79.875L39.25 86.375V68.2319C40.0672 68.6301 40.9593 68.8516 41.8679 68.8819C42.9312 68.9531 43.9365 69.392 44.7116 70.1234C45.7289 71.0268 47.0055 71.5856 48.3594 71.7202C49.7132 71.8547 51.0749 71.558 52.25 70.8725V70.8709Z" fill="#F9D266"/>
<path d="M58.75 68.2319V97.75L52.25 91.25L45.75 97.75V79.875L52.25 86.375V70.8725C52.6201 70.6584 52.9679 70.408 53.2884 70.125C54.0635 69.3936 55.0688 68.9547 56.1321 68.8835C57.0407 68.8532 57.9328 68.6317 58.75 68.2335V68.2319Z" fill="#F0AE42"/>
<path d="M34.3748 59.7884C35.1062 60.5635 35.5451 61.5688 35.6163 62.6321C35.6684 64.2719 36.343 65.8302 37.5031 66.9902C38.6631 68.1503 40.2215 68.8249 41.8612 68.877C42.9245 68.9482 43.9299 69.3871 44.7049 70.1185C45.8862 71.1695 47.4122 71.7502 48.9933 71.7502C50.5744 71.7502 52.1005 71.1695 53.2817 70.1185C54.0568 69.3871 55.0622 68.9482 56.1254 68.877C57.7652 68.8249 59.3235 68.1503 60.4836 66.9902C61.6436 65.8302 62.3183 64.2719 62.3703 62.6321C62.4451 61.5672 62.8887 60.5616 63.6248 59.7884C64.6758 58.6072 65.2565 57.0811 65.2565 55.5C65.2565 53.9189 64.6758 52.3928 63.6248 51.2116C62.8935 50.4365 62.4545 49.4312 62.3833 48.3679C62.3313 46.7281 61.6566 45.1698 60.4966 44.0098C59.3365 42.8497 57.7782 42.1751 56.1385 42.123C55.0721 42.0515 54.064 41.6101 53.2882 40.875C52.107 39.824 50.5809 39.2433 48.9998 39.2433C47.4187 39.2433 45.8927 39.824 44.7114 40.875C43.9364 41.6064 42.931 42.0453 41.8677 42.1165C40.228 42.1686 38.6696 42.8432 37.5096 44.0033C36.3495 45.1633 35.6749 46.7216 35.6228 48.3614C35.5513 49.4278 35.1099 50.4358 34.3748 51.2116C33.3238 52.3928 32.7432 53.9189 32.7432 55.5C32.7432 57.0811 33.3238 58.6072 34.3748 59.7884Z" fill="#D5883E"/>
<path d="M49 63.625C53.4873 63.625 57.125 59.9873 57.125 55.5C57.125 51.0127 53.4873 47.375 49 47.375C44.5127 47.375 40.875 51.0127 40.875 55.5C40.875 59.9873 44.5127 63.625 49 63.625Z" fill="#F9D266"/>
<path d="M40.875 55.5C40.884 56.8513 41.2333 58.1787 41.8906 59.3594C43.0713 60.0167 44.3987 60.366 45.75 60.375C47.9049 60.375 49.9715 59.519 51.4952 57.9952C53.019 56.4715 53.875 54.4049 53.875 52.25C53.866 50.8987 53.5167 49.5713 52.8594 48.3906C51.6787 47.7333 50.3513 47.384 49 47.375C46.8451 47.375 44.7785 48.231 43.2548 49.7548C41.731 51.2785 40.875 53.3451 40.875 55.5Z" fill="#FCE797"/>
<path d="M34.375 11.625H63.625V14.875H34.375V11.625Z" fill="#FAEADB"/>
<path d="M24.625 18.125H73.375V21.375H24.625V18.125Z" fill="#FAEADB"/>
<path d="M18.125 24.625H79.875V27.875H18.125V24.625Z" fill="#FAEADB"/>
<path d="M70.125 53.875H79.875V57.125H70.125V53.875Z" fill="#D0565C"/>
<path d="M18.125 53.875H27.875V57.125H18.125V53.875Z" fill="#D0565C"/>
</svg>
