<svg width="65" height="71" viewBox="0 0 65 71" fill="none" xmlns="http://www.w3.org/2000/svg">
<path d="M64.6358 63.3777C63.7719 56.4664 57.175 52.854 52.8554 51.1262L45.8657 62.9067L45.2374 54.8174L46.8869 51.0479H40.6039L42.1744 54.8174L41.5461 62.9067L34.6348 51.1262C30.2369 52.7758 23.7183 56.3882 22.8544 63.3777C22.6971 64.3989 23.1683 65.3411 23.9538 65.8912C26.3101 67.5407 32.2785 70.6819 43.7449 70.6819C55.2113 70.6819 61.1799 67.5407 63.536 65.8912C64.3216 65.3411 64.7138 64.3983 64.6355 63.3777H64.6358ZM56.625 64.9483H50.4992V63.2988H56.625V64.9483Z" fill="#30748B"/>
<path d="M54.1894 37.5397C54.1894 43.6123 49.5132 48.5345 43.7441 48.5345C37.9755 48.5345 33.2988 43.6122 33.2988 37.5397C33.2988 31.4676 37.9757 26.5449 43.7441 26.5449C49.5133 26.5449 54.1894 31.4677 54.1894 37.5397Z" fill="#30748B"/>
<path d="M25.6028 53.3251H17.5919V50.4194H29.6862C30.5501 49.9483 31.414 49.5555 32.2779 49.1627L35.027 47.906C32.1997 45.3926 30.4719 41.702 30.4719 37.539C30.4719 29.9992 36.3621 23.8736 43.6656 23.8736C44.8435 23.8736 45.9429 24.0308 47.0424 24.3447L47.043 6.75403C47.043 6.04733 46.4146 5.41899 45.7079 5.41899H33.9275V1.72779C33.9275 0.785529 33.1419 0 32.1997 0H14.8432C13.901 0 13.1155 0.785585 13.1155 1.72779V5.49738H1.33504C0.628345 5.49738 0 6.12574 0 6.83243V66.834C0 67.8551 0.863924 68.6402 1.80619 68.6402H18.77V54.8179H23.8745C24.5029 54.2685 25.0529 53.7974 25.6023 53.3256L25.6028 53.3251ZM38.8755 15.2351H42.2523V22.9315H38.8755V15.2351ZM34.4776 15.2351H37.8544V22.9315H34.4776V15.2351ZM23.4039 38.953H20.0271V31.2566H23.4039V38.953ZM23.4039 23.0102H20.0271V15.3138H23.4039V23.0102ZM27.8018 38.953H24.425V31.2566H27.8018V38.953ZM27.8018 23.0102H24.425V15.3138H27.8018V23.0102ZM8.95312 56.1524H5.65461V48.456H9.03138V56.1524H8.95312ZM8.95312 38.953H5.65461V31.2566H9.03138V38.953H8.95312ZM8.95312 23.0102H5.65461V15.3138H9.03138V23.0102H8.95312ZM13.351 56.1524H9.97423V48.456H13.351V56.1524ZM13.351 38.953H9.97423V31.2566H13.351V38.953ZM13.351 23.0102H9.97423V15.3138H13.351V23.0102Z" fill="url(#paint0_linear_307_278)"/>
<defs>
<linearGradient id="paint0_linear_307_278" x1="46.4314" y1="1.65998" x2="-8.72083" y2="12.8009" gradientUnits="userSpaceOnUse">
<stop offset="0.0672835" stop-color="#751B2B"/>
<stop offset="0.879832" stop-color="#30748B"/>
</linearGradient>
</defs>
</svg>
