<svg width="68" height="68" viewBox="0 0 68 68" fill="none" xmlns="http://www.w3.org/2000/svg">
<g clip-path="url(#clip0_307_229)">
<path d="M1.32812 1.32812H66.6719V46.1284H1.32812V1.32812Z" fill="#26A69A"/>
<path d="M65.3438 2.65625V44.8003H2.65625V2.65625H65.3438ZM68 0H0V47.4566H68V0Z" fill="#5D4037"/>
<path d="M4.25 62.7031V67.9997H50.5431V62.7031C50.5431 54.6441 39.1797 50.5534 27.5719 50.5694C16.0384 50.58 4.25 54.1659 4.25 62.7031Z" fill="#546E7A"/>
<path d="M23.7949 55.8926H31.0465L27.3384 71.4795L23.7949 55.8926Z" fill="#455A64"/>
<path d="M27.3706 47.9082H22.5469V53.0029C22.5469 55.3085 24.5125 57.1785 26.935 57.1785H27.8116C30.2341 57.1785 32.1997 55.3085 32.1997 53.0029V47.9082H27.3706Z" fill="#E49500"/>
<path d="M44.4966 27.6992C44.4966 27.6992 47.6256 28.2411 47.6256 31.6145C47.6256 34.5895 45.3413 35.7636 43.0569 35.7636V27.6992H44.4966ZM10.3478 27.6992C10.3478 27.6992 7.21875 28.2411 7.21875 31.6145C7.21875 34.5895 9.50313 35.7636 11.7875 35.7636V27.6992H10.3478Z" fill="#E39400"/>
<path d="M27.4236 5.61523C13.9298 5.61523 10.4023 16.0755 10.4023 30.7699C10.4023 46.0062 20.1933 49.948 27.4236 49.948C34.5477 49.948 44.4448 46.123 44.4448 30.7699C44.4448 16.0755 40.912 5.61523 27.4236 5.61523Z" fill="#FAC01B"/>
<path d="M21.8126 32.1357C21.8126 33.655 20.7979 34.8822 19.5388 34.8822C18.2851 34.8822 17.2598 33.6497 17.2598 32.1357C17.2598 30.6163 18.2798 29.3838 19.5388 29.3838C20.7979 29.3838 21.8126 30.611 21.8126 32.1357ZM33.022 32.1357C33.022 33.655 34.0366 34.8822 35.301 34.8822C36.5548 34.8822 37.5748 33.6497 37.5748 32.1357C37.5748 30.6163 36.5548 29.3838 35.301 29.3838C34.042 29.3838 33.022 30.611 33.022 32.1357Z" fill="#444444"/>
<path d="M32.3473 41.416H22.4979C21.9348 41.416 21.6904 41.7932 22.0623 42.367C22.5829 43.1638 24.5273 44.6938 27.4226 44.6938C30.3179 44.6938 32.2623 43.1638 32.7829 42.367C33.1548 41.7932 32.9104 41.416 32.3473 41.416Z" fill="#513F35"/>
<path d="M29.8027 37.23C28.9633 37.4691 28.092 37.5806 27.4227 37.5806C26.7533 37.5806 25.882 37.4637 25.0427 37.23C24.6867 37.1291 24.5433 37.4691 24.6708 37.6922C24.9364 38.1597 26.0095 39.1053 27.4227 39.1053C28.8358 39.1053 29.9089 38.1597 30.1745 37.6922C30.302 37.4637 30.1586 37.1237 29.8027 37.23Z" fill="#E39400"/>
<path d="M27.8271 3.69723C27.8271 3.69723 27.5615 3.6866 27.4499 3.69192C27.3384 3.69192 27.0727 3.69723 27.0727 3.69723C12.5112 3.97879 8.12305 12.7391 8.12305 18.8113C8.12305 24.7135 8.12836 29.0538 8.12836 29.0538C8.12836 29.0538 8.36211 28.8147 8.78711 28.48C9.24398 28.1241 9.74867 27.9275 9.74867 27.9275L10.4818 32.8575L15.3321 22.7213C15.364 22.6575 15.4277 22.6204 15.4968 22.631L18.3709 22.9497C21.2609 23.2685 24.1668 23.4279 27.0674 23.4332V23.4385C27.1949 23.4385 27.3171 23.4332 27.4446 23.4332C27.5721 23.4332 27.6943 23.4385 27.8218 23.4385V23.4279C30.7224 23.4172 33.6284 23.2632 36.5184 22.9444L39.3924 22.6257C39.4615 22.6204 39.5252 22.6575 39.5571 22.716L44.4074 32.8522L45.1405 27.9222C45.1405 27.9222 45.6452 28.1241 46.1021 28.4747C46.5324 28.8094 46.7609 29.0485 46.7609 29.0485C46.7609 29.0485 46.7662 24.7135 46.7662 18.806C46.7768 12.7391 42.3887 3.97879 27.8271 3.69723Z" fill="#6D4C41"/>
<path d="M21.8187 32.2252C21.8187 33.7339 20.8093 34.9611 19.5555 34.9611C18.3071 34.9611 17.2871 33.7393 17.2871 32.2252C17.2871 30.7111 18.3018 29.4893 19.5555 29.4893C20.8093 29.4893 21.8187 30.7111 21.8187 32.2252ZM32.9749 32.2252C32.9749 33.7339 33.9843 34.9611 35.2434 34.9611C36.4918 34.9611 37.5065 33.7393 37.5065 32.2252C37.5065 30.7111 36.4918 29.4893 35.2434 29.4893C33.9843 29.4893 32.9749 30.7111 32.9749 32.2252Z" fill="#444444"/>
<path d="M16.707 60.8227L20.8561 57.5396L15.9102 55.574L22.487 50.373L27.3373 71.4796L16.707 60.8227ZM33.9036 57.4759L38.1377 60.8227L27.3373 71.4796L32.3577 50.373L38.9345 55.574L33.9036 57.4759Z" fill="#E0E0E0"/>
<path d="M21.5479 27.1836H15.2526C15.072 27.1836 14.8913 27.1995 14.716 27.2208C15.1304 27.2898 15.4863 27.513 15.7201 27.8211H21.5426C23.3754 27.8211 24.8682 29.2023 24.8682 30.9023V33.9252C24.8682 35.6252 23.3754 37.0064 21.5426 37.0064H15.2526C13.4198 37.0064 11.927 35.6252 11.927 33.9252V31.3273H11.4595C11.3851 31.3273 11.3107 31.3167 11.2363 31.3061V33.9252C11.2363 35.9758 13.0373 37.6439 15.2473 37.6439H21.5426C23.7526 37.6439 25.5535 35.9758 25.5535 33.9252V30.9023C25.5588 28.8517 23.7579 27.1836 21.5479 27.1836Z" fill="#231F20" stroke="#231F20" stroke-width="0.481" stroke-miterlimit="10"/>
<path d="M14.7161 27.2209C14.6205 27.205 14.5248 27.1943 14.4292 27.1943H11.4595C10.5883 27.1943 9.87109 27.8531 9.87109 28.6659V29.8612C9.87109 30.5996 10.4661 31.2106 11.2364 31.3115V30.9078C11.2364 29.0218 12.7558 27.4653 14.7161 27.2209Z" fill="black"/>
<path d="M11.9275 31.3282V30.9032C11.9275 29.2032 13.4203 27.822 15.2531 27.822H15.7259C15.4922 27.5139 15.1362 27.2907 14.7219 27.2217C12.7616 27.4661 11.2422 29.0226 11.2422 30.9032V31.307C11.3166 31.3176 11.3856 31.3282 11.4653 31.3282H11.9275Z" fill="black" stroke="black" stroke-width="0.481" stroke-miterlimit="10"/>
<path d="M33.0441 27.1836H39.3395C39.5201 27.1836 39.7007 27.1995 39.876 27.2208C39.4616 27.2898 39.1057 27.513 38.872 27.8211H33.0441C31.2113 27.8211 29.7185 29.2023 29.7185 30.9023V33.9252C29.7185 35.6252 31.2113 37.0064 33.0441 37.0064H39.3395C41.1723 37.0064 42.6651 35.6252 42.6651 33.9252V31.3273H43.1326C43.207 31.3273 43.2813 31.3167 43.3557 31.3061V33.9252C43.3557 35.9758 41.5548 37.6439 39.3448 37.6439H33.0441C30.8341 37.6439 29.0332 35.9758 29.0332 33.9252V30.9023C29.0332 28.8517 30.8288 27.1836 33.0441 27.1836Z" fill="#231F20" stroke="#231F20" stroke-width="0.481" stroke-miterlimit="10"/>
<path d="M39.875 27.2209C39.9706 27.205 40.0663 27.1943 40.1619 27.1943H43.1316C44.0028 27.1943 44.72 27.8531 44.72 28.6659V29.8612C44.72 30.5996 44.125 31.2106 43.3547 31.3115V30.9078C43.3494 29.0218 41.8353 27.4653 39.875 27.2209Z" fill="black"/>
<path d="M42.6656 31.3282V30.9032C42.6656 29.2032 41.1728 27.822 39.34 27.822H38.8672C39.1009 27.5139 39.4569 27.2907 39.8712 27.2217C41.8316 27.4661 43.3509 29.0226 43.3509 30.9032V31.307C43.2766 31.3176 43.2075 31.3282 43.1278 31.3282H42.6656Z" fill="black" stroke="black" stroke-width="0.481" stroke-miterlimit="10"/>
<path d="M29.4155 31.3281H25.0805L24.4961 28.5391H30.053L29.4155 31.3281Z" fill="#231F20"/>
<path d="M56.2319 61.7043L54.5 61.3696L62.1234 25.335H62.7875L56.2319 61.7043Z" fill="#F15A29"/>
<path d="M54.013 57.2154C54.8099 57.412 55.3199 57.9751 55.6759 58.6764C56.563 58.517 58.093 58.3576 58.5393 58.3682C59.0652 58.3842 59.7612 58.4426 59.878 59.521C59.9524 60.2223 59.6868 60.8014 58.789 60.8864C58.4543 60.9182 58.109 60.9395 57.769 60.9554L57.8912 61.3485C58.2046 61.3432 58.4862 61.3326 58.704 61.3326C59.6124 61.322 60.1277 61.8054 60.1277 62.767C60.1277 63.6117 59.3999 64.0101 58.8687 64.042C58.5871 64.0579 57.8008 64.0154 57.0252 63.941L56.9455 64.1057L56.9137 64.1535C57.4024 64.2279 57.8699 64.3076 58.1993 64.366C59.0865 64.5254 59.5115 65.1151 59.4105 65.8164C59.2884 66.6664 58.5287 66.9001 58.0027 66.8842C57.6096 66.8735 56.2284 66.6557 55.304 66.4592L55.1234 66.7195C55.1871 66.7301 55.2562 66.7407 55.3305 66.7514C55.3412 66.7514 55.3518 66.7567 55.3677 66.7567L55.5537 66.7885C55.5696 66.7885 55.5802 66.7939 55.5962 66.7939C55.6705 66.8045 55.7449 66.8204 55.8193 66.831H55.8299C55.9096 66.8417 55.9893 66.8576 56.069 66.8735C56.0849 66.8735 56.1009 66.8789 56.1115 66.8789L56.2974 66.9107C56.324 66.916 56.3452 66.9214 56.3718 66.9214C56.4249 66.932 56.478 66.9426 56.5259 66.9479L56.6055 66.9639C56.6587 66.9745 56.7065 66.9851 56.7543 66.9904L56.8287 67.0064C56.8977 67.0223 56.9721 67.0329 57.0359 67.0489C57.8487 67.2189 58.1568 67.5854 58.0559 68.2282C57.9177 69.1313 57.0093 69.3332 56.5259 69.2854C56.0424 69.2429 54.4168 68.9082 53.8855 68.6745L53.7899 68.6267L53.604 68.8923C51.2134 68.7329 49.4974 67.7342 49.4974 67.7342C48.0949 66.9479 47.8612 66.3423 47.6274 65.3807C47.3618 64.2864 47.4255 62.9901 47.4362 62.7882C47.5212 60.6101 48.0046 59.2023 49.763 58.0335C50.188 57.752 50.8096 57.2579 52.1855 57.0985C52.7221 57.0454 53.4818 57.0879 54.013 57.2154Z" fill="#FBC11B"/>
<path d="M56.0043 60.8334C56.0043 60.8334 56.0255 59.739 55.6802 58.6765L56.0627 58.6074C56.0627 58.6074 56.3337 59.3618 56.4293 60.4774C56.4452 60.658 56.4505 60.8227 56.4505 60.9821L56.7905 60.9609L59.0696 60.8334C59.0696 60.8334 58.8996 60.8652 58.8996 61.1202C58.8996 61.2265 58.9634 61.2955 59.0112 61.338C58.9155 61.3274 58.8093 61.3168 58.703 61.3221L56.4399 61.3805C56.4346 61.4443 56.4346 61.508 56.4293 61.5771C56.3762 62.5015 56.1584 63.3887 55.643 63.7287C57.3537 63.9305 58.873 64.0315 58.873 64.0315C58.5755 64.1537 58.703 64.5149 58.703 64.5149C57.5502 64.2015 54.7559 64.0368 54.7559 64.0368C53.5765 63.9359 53.4171 64.7327 53.4171 64.7327C53.1993 65.6943 54.2459 66.1352 54.2459 66.1352C54.384 66.2149 55.6324 66.4646 56.5249 66.6346L57.4174 66.7993L57.6671 66.8471C57.6405 66.8418 57.5343 66.8365 57.4918 67.0118C57.4705 67.0968 57.4918 67.1552 57.5077 67.1924C57.3749 67.134 57.2155 67.0809 57.0296 67.0437C56.6099 66.9587 55.3402 66.7515 55.2446 66.7355L54.9259 66.693C53.874 66.5549 53.619 66.7409 53.619 66.7409C53.0346 67.049 53.2046 67.7927 53.2046 67.7927C53.3321 68.5099 54.1237 68.7331 54.1237 68.7331C54.4265 68.8234 56.0309 69.2112 56.0309 69.2112L53.603 68.8924C53.433 68.8393 53.3693 68.7596 53.2737 68.6852C52.4184 67.984 52.7796 67.033 52.7796 67.033C52.9124 66.6665 53.1887 66.5018 53.1887 66.5018C53.3534 66.4009 53.5446 66.3477 53.7412 66.3265C52.7477 65.8005 52.9071 64.738 52.9071 64.738C53.0346 64.0846 53.5074 63.8084 53.8793 63.6915C53.8474 63.6649 53.8102 63.6384 53.7784 63.6065C53.7784 63.6065 53.1409 63.1868 53.3746 61.3859C53.4543 60.7802 53.4437 60.6952 53.3799 60.3127C53.3799 60.3127 53.1515 59.4946 52.4715 59.7549C52.4715 59.7549 52.243 59.8134 51.8871 60.0949C51.8871 60.0949 51.6002 60.318 51.6055 59.9674C51.6055 59.8612 51.6799 59.6699 51.8234 59.5052C51.8234 59.5052 51.9721 59.3299 52.3387 59.229C52.3387 59.229 53.2896 58.8518 53.7624 59.8027C54.0121 60.3021 53.9643 60.6315 53.8846 61.1415C53.8846 61.1415 53.7359 62.7512 54.1555 63.2665C54.1555 63.2665 54.5699 63.7393 55.234 63.4471C55.2393 63.4577 56.1424 62.9637 56.0043 60.8334Z" fill="#E49500"/>
</g>
<defs>
<clipPath id="clip0_307_229">
<rect width="68" height="68" fill="white"/>
</clipPath>
</defs>
</svg>
