<svg width="68" height="68" viewBox="0 0 68 68" fill="none" xmlns="http://www.w3.org/2000/svg">
<path d="M39.1848 47.3237H28.8095V57.5928C28.8095 60.1693 30.9238 62.2571 33.527 62.2571H34.4673C37.0704 62.2571 39.1848 60.1693 39.1848 57.5928V47.3237ZM48.5188 26.7803H19.4807C16.3516 26.7803 13.791 29.5109 13.791 32.8418C13.791 36.1781 16.3516 38.9034 19.4807 38.9034H48.5135C51.6426 38.9034 54.2032 36.1728 54.2032 32.8418C54.2085 29.5109 51.6479 26.7803 48.5188 26.7803Z" fill="#EDC391"/>
<path d="M34.0009 5.87012C24.7571 5.87012 16.1934 15.7567 16.1934 29.9836C16.1934 44.1361 25.0174 51.1326 34.0009 51.1326C42.9843 51.1326 51.8084 44.1361 51.8084 29.9836C51.8084 15.7567 43.2446 5.87012 34.0009 5.87012Z" fill="#F9DDBD"/>
<path d="M25.2655 33.9412C26.712 33.9412 27.8846 32.7282 27.8846 31.2318C27.8846 29.7355 26.712 28.5225 25.2655 28.5225C23.8191 28.5225 22.6465 29.7355 22.6465 31.2318C22.6465 32.7282 23.8191 33.9412 25.2655 33.9412Z" fill="#312D2D"/>
<path d="M42.7323 33.9412C44.1788 33.9412 45.3514 32.7282 45.3514 31.2318C45.3514 29.7355 44.1788 28.5225 42.7323 28.5225C41.2859 28.5225 40.1133 29.7355 40.1133 31.2318C40.1133 32.7282 41.2859 33.9412 42.7323 33.9412Z" fill="#312D2D"/>
<path d="M36.0515 36.146C35.9931 36.1248 35.94 36.1088 35.8815 36.1035H32.1256C32.0672 36.1088 32.0087 36.1248 31.9556 36.146C31.6156 36.2841 31.4297 36.6348 31.589 37.012C31.7484 37.3891 32.4975 38.441 34.0062 38.441C35.515 38.441 36.264 37.3838 36.4234 37.012C36.5775 36.6348 36.3915 36.2841 36.0515 36.146Z" fill="#DBA689"/>
<path d="M38.4732 40.4389C36.7785 41.4429 31.2323 41.4429 29.5429 40.4389C28.5707 39.8598 27.5773 40.747 27.981 41.6289C28.3794 42.4948 31.4076 44.5082 34.0213 44.5082C36.6351 44.5082 39.626 42.4948 40.0244 41.6289C40.4229 40.747 39.4454 39.8598 38.4732 40.4389Z" fill="#444444"/>
<path d="M34.0101 2.67188H33.9889C9.84888 2.79937 14.7948 29.3087 14.7948 29.3087C14.7948 29.3087 15.8786 32.1509 16.3726 33.4047C16.4417 33.5853 16.7073 33.5641 16.7498 33.3781C17.2651 31.0725 19.1192 22.8966 20.0542 20.4103C20.3213 19.7019 20.829 19.11 21.4884 18.7381C22.1478 18.3661 22.917 18.2378 23.6614 18.3756C26.0308 18.8059 29.7973 19.3372 33.957 19.3372H34.042C38.1964 19.3372 41.9683 18.8059 44.3323 18.3756C45.8729 18.0941 47.3923 18.9494 47.9395 20.4103C48.8692 22.8859 50.7126 31.0141 51.2333 33.3516C51.2758 33.5428 51.5414 33.5587 51.6104 33.3781L53.1936 29.3034C53.2042 29.3087 58.1448 2.79937 34.0101 2.67188Z" fill="#312D2D"/>
<path d="M53.2045 29.3087C53.2045 29.3087 58.1504 2.79937 34.0105 2.67188H33.9892C33.612 2.67188 33.2455 2.6825 32.8842 2.69844C32.167 2.73031 31.4711 2.78344 30.8017 2.86312H30.7805C30.7326 2.86844 30.6901 2.87906 30.6423 2.88437C10.322 5.43969 14.7898 29.3087 14.7898 29.3087L16.373 33.3887C16.442 33.5694 16.7023 33.5534 16.7448 33.3622C17.2655 31.03 19.1142 22.8912 20.0492 20.4156C20.3169 19.7065 20.8255 19.1141 21.4859 18.7422C22.1463 18.3702 22.9165 18.2423 23.6617 18.3809C26.0311 18.8059 29.7976 19.3372 33.9573 19.3372H34.0423C38.1967 19.3372 41.9686 18.8059 44.3326 18.3756C45.8733 18.0941 47.3926 18.9494 47.9398 20.4103C48.8748 22.8966 50.7289 31.0884 51.2389 33.3834C51.2814 33.5747 51.5417 33.5906 51.6108 33.41C52.1101 32.1616 53.2045 29.3087 53.2045 29.3087Z" fill="url(#paint0_radial_307_255)"/>
<path d="M21.2556 26.9448C22.844 24.6976 26.4512 24.4851 28.5178 26.1586C28.8471 26.4242 29.2828 26.7961 29.4103 27.2104C29.6228 27.8851 28.9746 28.4111 28.3424 28.2517C27.9387 28.1507 27.5615 27.9329 27.1631 27.8107C26.4353 27.5823 25.9093 27.5186 25.2559 27.5186C24.289 27.5132 23.6674 27.6354 22.7484 28.0073C22.3712 28.1614 22.0631 28.4058 21.6328 28.2251C21.1387 28.0179 20.9581 27.3911 21.2556 26.9448ZM45.7249 28.2198C45.5709 28.1507 45.4221 28.0657 45.2681 28.002C44.3224 27.6089 43.7859 27.5079 42.7606 27.5132C41.8574 27.5186 41.3209 27.6407 40.6143 27.8798C40.184 28.0286 39.6368 28.4004 39.1587 28.257C38.4574 28.0445 38.4787 27.2795 38.8612 26.7907C39.3181 26.217 39.9449 25.7814 40.609 25.4945C42.1496 24.8251 44.0303 24.9207 45.4806 25.7867C45.9534 26.0682 46.4687 26.4561 46.7556 26.9448C47.1699 27.6407 46.5431 28.5545 45.7249 28.2198Z" fill="#454140"/>
<path d="M61.8906 28.8359C61.2319 28.8359 60.6953 29.3459 60.6953 29.9728V34.8603C60.6953 35.4872 61.2319 35.9972 61.8906 35.9972C62.5494 35.9972 63.0859 35.4872 63.0859 34.8603V29.9728C63.0859 29.3459 62.5494 28.8359 61.8906 28.8359ZM59.5 28.8359C58.8413 28.8359 58.3047 29.3459 58.3047 29.9728V34.8603C58.3047 35.4872 58.8413 35.9972 59.5 35.9972C60.1588 35.9972 60.6953 35.4872 60.6953 34.8603V29.9728C60.6953 29.3459 60.1588 28.8359 59.5 28.8359Z" fill="#E8AD00"/>
<path d="M60.6953 28.8359C60.0366 28.8359 59.5 29.3459 59.5 29.9728V35.9175C59.5 36.5444 60.0366 37.0544 60.6953 37.0544C61.3541 37.0544 61.8906 36.5444 61.8906 35.9175V29.9728C61.8906 29.3459 61.3541 28.8359 60.6953 28.8359Z" fill="#FFCA28"/>
<path d="M60.6948 29.5795C61.5045 29.5795 62.161 28.954 62.161 28.1823C62.161 27.4107 61.5045 26.7852 60.6948 26.7852C59.885 26.7852 59.2285 27.4107 59.2285 28.1823C59.2285 28.954 59.885 29.5795 60.6948 29.5795Z" fill="#FFCA28"/>
<path d="M60.6953 28.167C60.4031 28.167 60.1641 27.9279 60.1641 27.6357V7.44824C60.1641 7.15605 60.4031 6.91699 60.6953 6.91699C60.9875 6.91699 61.2266 7.15605 61.2266 7.44824V27.6357C61.2266 27.9332 60.9875 28.167 60.6953 28.167Z" fill="#504F4F"/>
<path d="M61.625 6.89551C45.2466 2.77832 34 2.64551 34 2.64551C34 2.64551 22.7534 2.77832 6.375 6.89551V7.30457C6.375 8.01113 6.83719 8.6327 7.51188 8.82926C9.48813 9.41363 14.4872 10.7046 17.17 11.2411C17.1275 11.2836 16.5856 12.2346 16.1978 13.1164C16.1978 13.1164 20.5222 16.1552 34.0053 17.5152C47.4884 16.1552 51.9403 13.4883 51.9403 13.4883C51.4728 12.5268 50.9894 11.6343 50.9894 11.6343C53.38 11.2411 58.5491 9.47207 60.5253 8.83988C61.1894 8.62738 61.6356 8.01644 61.6356 7.32051V6.89551H61.625Z" fill="url(#paint1_linear_307_255)"/>
<path d="M34 2.64551C34 2.64551 22.7534 2.77832 6.375 6.89551C6.375 6.89551 25.1866 12.0327 34 11.8786C42.8134 12.0327 61.625 6.89551 61.625 6.89551C45.2466 2.77832 34 2.64551 34 2.64551Z" fill="url(#paint2_linear_307_255)"/>
<path opacity="0.4" d="M61.625 6.89551C45.2466 2.77832 34 2.64551 34 2.64551C34 2.64551 22.7534 2.77832 6.375 6.89551V7.30457C6.375 8.01113 6.83719 8.6327 7.51188 8.82926C9.48813 9.41363 14.4872 10.7896 17.17 11.3314C17.17 11.3314 16.66 12.1602 16.1978 13.2068C16.1978 13.2068 20.5222 16.1552 34.0053 17.5205C47.4884 16.1605 51.9403 13.4936 51.9403 13.4936C51.4728 12.5321 50.9894 11.6396 50.9894 11.6396C53.38 11.2464 58.5491 9.47738 60.5253 8.84519C61.1894 8.63269 61.6356 8.02176 61.6356 7.32582V6.89551H61.625Z" fill="url(#paint3_linear_307_255)"/>
<path d="M60.8276 64.2757C60.8276 56.5141 49.2729 52.8325 39.1951 52.0038L34.6263 57.8635C34.4776 58.0547 34.2438 58.1716 33.9995 58.1716C33.7551 58.1716 33.5213 58.06 33.3726 57.8635L28.7932 51.9932C23.1885 52.4235 7.16602 54.5166 7.16602 64.2757V65.8747H60.8223L60.8276 64.2757Z" fill="#212121"/>
<path d="M60.8276 64.2757C60.8276 56.5141 49.2729 52.8325 39.1951 52.0038L34.6263 57.8635C34.4776 58.0547 34.2438 58.1716 33.9995 58.1716C33.7551 58.1716 33.5213 58.06 33.3726 57.8635L28.7932 51.9932C23.1885 52.4235 7.16602 54.5166 7.16602 64.2757V65.8747H60.8223L60.8276 64.2757Z" fill="url(#paint4_radial_307_255)"/>
<defs>
<radialGradient id="paint0_radial_307_255" cx="0" cy="0" r="1" gradientUnits="userSpaceOnUse" gradientTransform="translate(34.0004 24.7902) scale(20.12 22.6994)">
<stop offset="0.794" stop-color="#454140" stop-opacity="0"/>
<stop offset="1" stop-color="#454140"/>
</radialGradient>
<linearGradient id="paint1_linear_307_255" x1="34" y1="0.344664" x2="34" y2="15.5602" gradientUnits="userSpaceOnUse">
<stop offset="0.003" stop-color="#424242"/>
<stop offset="0.472" stop-color="#353535"/>
<stop offset="1" stop-color="#212121"/>
</linearGradient>
<linearGradient id="paint2_linear_307_255" x1="34" y1="0.433383" x2="34" y2="16.9021" gradientUnits="userSpaceOnUse">
<stop offset="0.003" stop-color="#616161"/>
<stop offset="0.324" stop-color="#505050"/>
<stop offset="0.955" stop-color="#242424"/>
<stop offset="1" stop-color="#212121"/>
</linearGradient>
<linearGradient id="paint3_linear_307_255" x1="7.38066" y1="10.0846" x2="60.9455" y2="10.0846" gradientUnits="userSpaceOnUse">
<stop offset="0.001" stop-color="#BFBEBE"/>
<stop offset="0.3" stop-color="#212121" stop-opacity="0"/>
<stop offset="0.7" stop-color="#212121" stop-opacity="0"/>
<stop offset="1" stop-color="#BFBEBE"/>
</linearGradient>
<radialGradient id="paint4_radial_307_255" cx="0" cy="0" r="1" gradientUnits="userSpaceOnUse" gradientTransform="translate(33.9995 65.1327) scale(28.7762 15.0989)">
<stop offset="0.598" stop-color="#212121"/>
<stop offset="1" stop-color="#616161"/>
</radialGradient>
</defs>
</svg>
