<svg width="2648" height="1185" viewBox="0 0 2648 1185" fill="none" xmlns="http://www.w3.org/2000/svg">
<path opacity="0.08" d="M533.961 473.874C533.961 473.874 871.488 -211.488 1437.04 158.039C2002.58 527.566 1987.34 427.552 2274.96 450.713C2562.59 473.874 2390.71 999.214 2390.71 999.214C2390.71 999.214 500 911.88 500 907.669C500 947.5 533.961 473.874 533.961 473.874Z" fill="#30748B"/>
<path opacity="0.08" d="M42.3335 530.099C42.3335 530.099 463.076 -324.292 1168.06 136.37C1873.04 597.033 2648 27.703 2648 27.703L2356.85 1185C2356.85 1185 0 1027.51 0 1022.26C0 1017.01 42.3335 530.099 42.3335 530.099Z" fill="#30748B"/>
</svg>
