<svg width="57" height="56" viewBox="0 0 57 56" fill="none" xmlns="http://www.w3.org/2000/svg">
<path d="M0.137902 25.347C0.137902 25.347 -1.20917 35.1849 4.51706 43.8587C9.21068 50.9648 16.6829 55.7383 27.0746 55.9589C36.9125 56.1654 44.1594 52.7484 49.712 45.9661C57.1843 36.837 56.0249 26.7598 56.0249 25.4831C56.0249 23.2959 51.979 35.3491 51.979 35.3491L40.5829 50.181L23.8783 53.2272C23.8783 53.2272 10.5296 47.3742 10.4498 47.0597C10.37 46.7453 0.137902 25.347 0.137902 25.347Z" fill="#AF656D"/>
<path d="M18.4371 40.2581C18.4371 40.2581 18.3996 42.3749 18.4747 42.572C18.5545 42.7692 20.1221 42.8067 21.3378 42.8067C22.6332 42.8067 24.337 42.8724 24.3746 42.5204C24.4309 42.0135 24.4074 40.1689 24.4074 40.1689L20.8262 37.9817L18.4371 40.2581ZM23.2246 30.4108L23.9287 32.4103C23.9287 32.4103 28.9743 33.1425 32.349 31.8846C35.7238 30.6314 37.8922 28.8338 38.9389 26.0833C40.347 22.3941 38.8075 18.5266 38.8075 18.5266L33.973 26.3649L25.3414 29.5425L23.2246 30.4108ZM28.1248 14.4854C27.7305 14.5651 22.5534 14.7623 22.5534 14.7623L23.2199 17.8601C23.2199 17.8601 23.8864 17.7427 24.5529 17.7052C25.2194 17.6676 29.1621 17.264 30.8705 18.2919C33.3441 19.7845 33.4614 22.0984 33.4614 22.0984C33.4614 22.0984 37.3055 20.5683 36.8361 19.7422C36.3668 18.9161 33.7383 15.1894 33.7383 15.1894L28.1248 14.4854ZM33.4004 39.953C33.4004 39.953 34.7146 42.0886 34.9775 42.1637C35.2403 42.2388 38.3334 42.2294 39.3097 42.2482C41.3045 42.2904 41.3514 41.4502 40.6802 40.2158C39.9011 38.7749 39.1126 37.8784 39.1126 37.8784L33.4004 39.953Z" fill="#AF656D"/>
<path d="M28.4398 0.000602492C10.3694 -0.107351 -0.383746 14.3115 0.137247 27.4677C0.658239 40.6287 10.895 54.5171 28.1254 54.3106C45.3557 54.0994 55.6441 39.7369 56.0337 27.0735C56.4232 14.41 45.5669 0.108556 28.4398 0.000602492ZM28.651 49.5043C18.5222 49.922 5.77899 41.8818 6.09346 28.092C6.40793 14.3068 16.8559 6.53883 27.5058 6.2619C35.546 6.05069 49.8568 11.7957 49.8568 28.4017C49.8522 41.7833 38.1603 49.1147 28.651 49.5043Z" fill="#AF656D"/>
<path d="M40.3284 39.6287C39.9529 39.0936 33.6118 29.7439 33.6118 29.7439C33.6118 29.7439 38.9297 27.0028 39.2019 21.9525C39.277 20.5585 39.2019 16.2591 35.0668 13.5697C30.9317 10.8849 22.2579 11.8283 20.3664 11.9363C18.4748 12.0442 18.4373 12.8797 18.3669 13.6448C18.2965 14.4098 18.442 40.7786 18.442 40.7786C18.442 40.7786 19.8642 40.8725 21.4224 40.8631C23.0887 40.8537 24.4029 40.8537 24.4029 40.8537L24.3747 31.1379L27.4397 31.1895L33.7244 40.4313C33.7244 40.4313 39.3662 40.3797 39.9576 40.4313C40.5443 40.4876 40.7039 40.1638 40.3284 39.6287ZM28.078 26.1439C26.1255 26.1767 24.2621 26.0923 24.2621 26.0923L24.2105 16.3107C24.2105 16.3107 26.2006 16.1981 28.3596 16.3248C30.9787 16.475 33.4804 17.8784 33.3959 21.3095C33.3067 25.0221 31.0866 26.0876 28.078 26.1439Z" fill="#AF656D"/>
<path d="M20.1362 13.7149C19.5213 14.2453 19.4415 17.728 20.2582 17.8876C21.0749 18.0471 21.8963 16.0852 22.5487 15.5971C23.2058 15.1042 25.1396 14.4096 25.0879 13.7947C25.0035 12.8044 21.0373 12.9358 20.1362 13.7149ZM35.198 22.5155C34.4189 22.4357 33.8087 24.5619 33.1516 25.2565C32.4945 25.9512 30.8893 26.6318 31.0629 27.425C31.2976 28.4811 34.2593 28.1995 35.2356 27.0589C36.47 25.6273 36.6859 22.6704 35.198 22.5155ZM2.74158 19.2816C2.55383 20.0748 2.45526 20.9196 3.23441 21.2059C4.01355 21.4923 4.42189 20.347 4.66596 19.6101C4.91003 18.8732 7.85763 12.5274 12.3213 8.88518C17.1698 4.92375 23.2105 3.5626 24.0694 3.31853C24.9284 3.07446 25.4775 2.48307 25.3367 1.96677C25.1724 1.3519 24.3135 1.30966 23.5766 1.47394C22.9946 1.60536 16.968 2.13104 10.7395 7.21424C4.72229 12.1238 2.9481 18.4226 2.74158 19.2816Z" fill="#AF656D"/>
</svg>
