<svg width="45" height="45" viewBox="0 0 45 45" fill="none" xmlns="http://www.w3.org/2000/svg">
<path d="M6.22486 19.1734C6.81594 19.2502 7.41333 19.0891 7.88562 18.7255C8.35791 18.3619 8.66641 17.8255 8.74325 17.2344C8.82009 16.6434 8.65897 16.046 8.29535 15.5737C7.93173 15.1014 7.39539 14.7929 6.80431 14.7161L2.88187 13.7354C2.59591 13.6478 2.29522 13.6186 1.99773 13.6496C1.70024 13.6806 1.41203 13.7711 1.15027 13.9158C0.888515 14.0606 0.658569 14.2565 0.474135 14.492C0.2897 14.7274 0.154551 14.9976 0.0767387 15.2864C-0.00107359 15.5752 -0.0199566 15.8767 0.0212152 16.173C0.062387 16.4693 0.162771 16.7542 0.316386 17.0108C0.470001 17.2675 0.673704 17.4906 0.915358 17.6668C1.15701 17.8431 1.43167 17.9689 1.72297 18.0368L5.64541 19.0842C5.83212 19.1465 6.02806 19.1767 6.22486 19.1734ZM14.8275 6.71517C14.9581 7.20138 15.2495 7.62904 15.6541 7.92851C16.0588 8.22798 16.553 8.38161 17.0561 8.36437C17.2481 8.39519 17.4437 8.39519 17.6356 8.36437C18.2013 8.20789 18.6824 7.83459 18.9744 7.32553C19.2665 6.81646 19.346 6.21273 19.1957 5.64541L18.1482 1.72297C18.0803 1.43167 17.9545 1.15701 17.7783 0.915358C17.602 0.673704 17.3789 0.470001 17.1223 0.316386C16.8656 0.162771 16.5807 0.062387 16.2844 0.0212152C15.9882 -0.0199566 15.6867 -0.00107359 15.3979 0.0767387C15.1091 0.154551 14.8389 0.2897 14.6034 0.474135C14.3679 0.658569 14.172 0.888515 14.0273 1.15027C13.8825 1.41203 13.792 1.70024 13.761 1.99773C13.73 2.29522 13.7592 2.59591 13.8469 2.88187L14.8275 6.71517ZM25.5919 29.0018C25.3837 28.7826 25.1331 28.6081 24.8553 28.4888C24.5775 28.3696 24.2784 28.3081 23.9761 28.3081C23.6738 28.3081 23.3747 28.3696 23.0969 28.4888C22.8192 28.6081 22.5686 28.7826 22.3604 29.0018L14.56 36.9358C13.6429 37.8157 12.4212 38.307 11.1502 38.307C9.87924 38.307 8.65748 37.8157 7.74035 36.9358C7.28888 36.4901 6.93042 35.9591 6.68576 35.3738C6.4411 34.7884 6.31511 34.1603 6.31511 33.5259C6.31511 32.8915 6.4411 32.2634 6.68576 31.6781C6.93042 31.0927 7.28888 30.5618 7.74035 30.1161L15.6744 22.3158C15.9077 22.116 16.0972 21.8701 16.2309 21.5936C16.3647 21.3171 16.4399 21.016 16.4517 20.709C16.4636 20.4021 16.4119 20.096 16.2998 19.81C16.1878 19.5241 16.0178 19.2643 15.8006 19.0471C15.5834 18.8299 15.3237 18.66 15.0377 18.5479C14.7517 18.4359 14.4456 18.3842 14.1387 18.396C13.8318 18.4079 13.5306 18.483 13.2541 18.6168C12.9776 18.7506 12.7318 18.9401 12.532 19.1734L4.53108 26.9514C3.66477 27.8177 2.97758 28.8462 2.50874 29.978C2.0399 31.1099 1.79858 32.3231 1.79858 33.5482C1.79858 34.7734 2.0399 35.9865 2.50874 37.1184C2.97758 38.2503 3.66477 39.2787 4.53108 40.145C5.39739 41.0114 6.42585 41.6985 7.55773 42.1674C8.68962 42.6362 9.90277 42.8775 11.1279 42.8775C12.3531 42.8775 13.5662 42.6362 14.6981 42.1674C15.83 41.6985 16.8584 41.0114 17.7247 40.145L25.5919 32.2779C25.8181 32.0692 25.9987 31.8159 26.1222 31.534C26.2456 31.252 26.3094 30.9476 26.3094 30.6398C26.3094 30.332 26.2456 30.0276 26.1222 29.7457C25.9987 29.4637 25.8181 29.2104 25.5919 29.0018ZM7.1609 10.2587C7.57601 10.6705 8.13629 10.9026 8.72096 10.905C9.01427 10.9067 9.30502 10.8505 9.57656 10.7396C9.84809 10.6287 10.0951 10.4653 10.3033 10.2587C10.7184 9.84117 10.9514 9.27631 10.9514 8.68753C10.9514 8.09875 10.7184 7.53389 10.3033 7.11633L7.42834 4.24136C7.00199 3.87624 6.45357 3.68546 5.89267 3.70712C5.33177 3.72879 4.7997 3.96131 4.40279 4.35822C4.00588 4.75513 3.77336 5.2872 3.75169 5.8481C3.73003 6.409 3.92082 6.95742 4.28593 7.38377L7.1609 10.2587ZM42.9977 26.5948L39.0753 25.5473C38.7846 25.4469 38.4763 25.4076 38.1697 25.4321C37.8631 25.4566 37.565 25.5443 37.2939 25.6897C37.0229 25.835 36.7849 26.0349 36.5949 26.2767C36.4048 26.5185 36.2669 26.7971 36.1898 27.0948C36.1127 27.3925 36.098 27.703 36.1467 28.0066C36.1954 28.3103 36.3064 28.6006 36.4728 28.8593C36.6391 29.1179 36.8573 29.3394 37.1134 29.5097C37.3695 29.6799 37.6581 29.7953 37.961 29.8486L41.8834 30.8961H42.4629C43.0539 30.973 43.6513 30.8118 44.1236 30.4482C44.5959 30.0846 44.9044 29.5483 44.9812 28.9572C45.0581 28.3661 44.897 27.7687 44.5333 27.2964C44.1697 26.8241 43.6334 26.5156 43.0423 26.4388L42.9977 26.5948ZM29.8932 37.9164C29.8158 37.6338 29.6835 37.3693 29.5038 37.138C29.3242 36.9066 29.1006 36.7129 28.846 36.568C28.5914 36.4231 28.3108 36.3299 28.0201 36.2935C27.7294 36.2572 27.4344 36.2785 27.152 36.3563C26.5863 36.5128 26.1052 36.8861 25.8131 37.3952C25.521 37.9042 25.4415 38.508 25.5919 39.0753L26.6394 42.9977C26.77 43.4839 27.0613 43.9116 27.466 44.2111C27.8707 44.5105 28.3649 44.6642 28.868 44.6469C29.0606 44.6688 29.255 44.6688 29.4475 44.6469C29.732 44.572 29.9989 44.4414 30.2327 44.2627C30.4666 44.084 30.6627 43.8609 30.8098 43.606C30.9569 43.3511 31.0521 43.0697 31.0899 42.7778C31.1276 42.486 31.1072 42.1896 31.0298 41.9057L29.8932 37.9164ZM37.5598 34.4174C37.1335 34.0523 36.585 33.8615 36.0241 33.8832C35.4632 33.9048 34.9312 34.1373 34.5343 34.5343C34.1373 34.9312 33.9048 35.4632 33.8832 36.0241C33.8615 36.585 34.0523 37.1335 34.4174 37.5598L37.2924 40.4348C37.7099 40.8499 38.2748 41.0829 38.8636 41.0829C39.4524 41.0829 40.0172 40.8499 40.4348 40.4348C40.8499 40.0172 41.0829 39.4523 41.0829 38.8636C41.0829 38.2748 40.8499 37.7099 40.4348 37.2924L37.5598 34.4174ZM42.864 11.1725C42.8986 9.31922 42.377 7.49811 41.3663 5.94427C40.3557 4.39044 38.9025 3.17521 37.1943 2.45549C35.4862 1.73576 33.6015 1.54457 31.7836 1.90661C29.9657 2.26864 28.2981 3.16728 26.996 4.48651L19.1288 12.4205C18.9181 12.6327 18.7512 12.8843 18.6377 13.161C18.5242 13.4377 18.4664 13.734 18.4674 14.033C18.4684 14.3321 18.5284 14.628 18.6438 14.9039C18.7591 15.1798 18.9278 15.4302 19.1399 15.6409C19.3521 15.8517 19.6037 16.0185 19.8804 16.132C20.1571 16.2455 20.4534 16.3034 20.7525 16.3023C21.0515 16.3013 21.3474 16.2414 21.6233 16.126C21.8992 16.0106 22.1496 15.842 22.3604 15.6298L30.1607 7.69578C31.0778 6.81588 32.2995 6.32458 33.5705 6.32458C34.8415 6.32458 36.0632 6.81588 36.9804 7.69578C37.4318 8.14149 37.7903 8.67242 38.0349 9.25776C38.2796 9.84311 38.4056 10.4712 38.4056 11.1056C38.4056 11.74 38.2796 12.3681 38.0349 12.9535C37.7903 13.5388 37.4318 14.0698 36.9804 14.5155L29.0463 22.3158C28.6312 22.7333 28.3983 23.2982 28.3983 23.887C28.3983 24.4758 28.6312 25.0406 29.0463 25.4582C29.4639 25.8733 30.0288 26.1063 30.6175 26.1063C31.2063 26.1063 31.7712 25.8733 32.1887 25.4582L40.1896 17.6802C41.8954 15.9426 42.8551 13.6074 42.864 11.1725Z" fill="#AF656D"/>
</svg>
