<svg width="60" height="60" viewBox="0 0 60 60" fill="none" xmlns="http://www.w3.org/2000/svg">
<path d="M23.8106 37.3211C22.9496 36.5431 21.3856 36.5531 20.2576 37.3271C19.9866 37.5131 19.5816 37.5101 19.3726 37.3191C19.1656 37.1321 19.2266 36.8221 19.4976 36.6371C19.7706 36.4491 20.1576 36.4491 20.3746 36.6461C20.8846 36.2901 21.3906 35.9321 21.8956 35.5721C21.1836 34.923 20.0346 34.8091 19.0296 35.1861C18.8866 35.0551 18.7436 34.9261 18.5996 34.7931C18.1436 35.1101 17.6856 35.4241 17.2266 35.7361C17.3776 35.8731 17.5306 36.0121 17.6846 36.149C17.1436 36.864 17.1466 37.7341 17.8116 38.3361C18.1826 38.673 18.6806 38.8721 19.2346 38.9301C19.9746 39.0101 20.7956 38.8341 21.4356 38.3931C21.7076 38.2081 22.0956 38.2081 22.3036 38.3971C22.5126 38.5871 22.4686 38.8981 22.1966 39.0851C21.9256 39.2721 21.5196 39.2681 21.3106 39.0811C20.7976 39.4261 20.2816 39.7691 19.7616 40.1081C20.4216 40.7061 21.5436 40.858 22.5266 40.545C22.7046 40.706 22.8796 40.8691 23.0586 41.0291C23.5196 40.7181 23.9766 40.4061 24.4316 40.0891C24.2587 39.9365 24.0881 39.7814 23.9196 39.6241C24.5216 38.8821 24.4956 37.9471 23.8106 37.3211ZM41.1236 19.7661C41.7746 19.7661 42.4556 19.4571 42.9386 18.8741C43.1446 18.6271 43.4776 18.5801 43.6856 18.7691C43.8956 18.9581 43.9056 19.3181 43.7006 19.5651C43.4946 19.8131 43.1446 19.8591 42.9366 19.6711C42.5466 20.1321 42.1536 20.5891 41.7586 21.0431C42.4176 21.6421 43.4086 21.6711 44.2056 21.1891L44.7386 21.6721C45.0886 21.2591 45.4336 20.8451 45.7756 20.4271L45.2646 19.9641C45.6656 19.0421 45.4976 17.9791 44.8146 17.3561C43.9516 16.5761 42.6116 16.7861 41.7616 17.8061C41.5556 18.0541 41.2056 18.1001 40.9976 17.9121C40.7886 17.7221 40.7966 17.3621 40.9996 17.1151C41.2086 16.8691 41.5396 16.8191 41.7556 17.0141C42.1406 16.5481 42.5216 16.0761 42.8966 15.6031C42.1826 14.9551 41.1816 14.9671 40.3756 15.5241L39.9426 15.1321C39.6016 15.5501 39.2546 15.9651 38.9056 16.3771C39.0586 16.5151 39.2116 16.6551 39.3636 16.7911C39.0086 17.6761 39.1406 18.6681 39.8076 19.2701C40.1796 19.6091 40.6366 19.7741 41.1236 19.7661Z" fill="#AF656D"/>
<path d="M57.696 29.693C58.4906 28.7287 59.2588 27.743 60 26.737C59.689 24.245 59.348 21.727 58.974 19.192L58.845 19.076L59.316 18.386L58.136 17.314C52.303 12.019 46.472 6.725 40.639 1.432L39.062 0L37.864 1.757C35.8228 4.73667 33.6174 7.60043 31.258 10.335C31.387 9.787 31.528 9.222 31.682 8.635C32.313 6.24 31.574 4.614 30.842 3.673C29.479 1.918 26.899 0.95 23.574 0.95C14.146 0.95 0.506 8.364 0.506 21.769C0.506 23.609 1.732 24.895 3.486 24.895C4.781 24.895 6.277 24.171 7.957 22.736C8.115 23.279 8.353 23.792 8.701 24.228C9.367 25.064 10.349 25.525 11.467 25.525C11.718 25.525 11.976 25.503 12.241 25.457C12.36 26.034 12.578 26.605 12.926 27.103C9.67419 29.4467 6.29428 31.6074 2.802 33.575L0.583 34.82L2.354 36.428C1.992 36.652 1.629 36.877 1.268 37.095C0.868 38.943 0.445 40.767 0 42.558C6.405 48.374 12.809 54.185 19.213 60C24.7887 56.9668 30.1829 53.6111 35.368 49.95C35.37 49.953 35.37 49.957 35.372 49.959C35.854 50.796 36.64 51.368 37.715 51.673C35.854 53.822 35.185 55.663 35.725 57.166C36.156 58.363 37.265 59.078 38.693 59.078C52.179 59.078 59.637 45.52 59.637 36.148C59.637 33.913 59.192 31.987 58.35 30.58C58.1585 30.2657 57.9397 29.9688 57.696 29.693ZM30.526 13.941C33.747 10.416 36.724 6.701 39.392 2.787C45.225 8.081 51.057 13.374 56.889 18.67C54.4683 22.2044 51.8236 25.58 48.971 28.776C48.047 28.971 47.174 29.14 46.374 29.27C48.872 26.578 51.239 23.783 53.412 20.854L52.829 20.325C52.184 19.74 52.091 18.693 52.602 17.979C52.756 17.761 52.911 17.546 53.065 17.33C49.176 13.802 45.288 10.271 41.402 6.743L40.939 7.392C40.427 8.104 39.474 8.203 38.832 7.618L38.248 7.091C35.768 10.433 33.049 13.611 30.151 16.643C30.238 15.829 30.359 14.932 30.526 13.941ZM37.571 23.744C35.53 21.89 32.672 21.471 30.115 22.313C30.038 21.81 29.927 20.755 29.978 19.095C33.0286 16.0273 35.881 12.7687 38.518 9.339C39.511 9.854 40.692 9.739 41.564 9.027L51.042 17.63C50.596 18.728 50.704 20.016 51.348 20.988C49.048 23.991 46.552 26.856 43.91 29.603C42.8019 29.7264 41.688 29.7915 40.573 29.798C40.254 29.798 39.972 29.79 39.709 29.779C40.068 27.627 39.331 25.341 37.571 23.744ZM11.682 23.667C11.612 23.673 11.534 23.688 11.468 23.688C9.233 23.688 9.452 20.485 9.689 18.934C10.922 17.706 12.082 16.424 13.293 15.212C14.571 13.91 15.914 12.678 17.425 11.696C18.935 10.722 20.65 10.031 22.509 9.859C20.652 9.667 18.711 10.151 17.056 11.079C15.38 11.99 13.949 13.252 12.633 14.57C11.326 15.902 10.127 17.31 8.919 18.695C7.702 20.062 6.498 21.434 5.029 22.564C4.412 22.902 3.894 23.057 3.485 23.057C2.74 23.057 2.352 22.555 2.352 21.768C2.352 9.231 15.379 2.786 23.572 2.786C27.872 2.786 30.842 4.564 29.89 8.17C27.132 18.648 28.4 23.167 28.4 23.167C27.32 25.182 25.238 25.837 25.238 25.837C24.1034 25.5311 22.9331 25.378 21.758 25.382C19.404 25.382 17.739 25.966 17.739 25.966C16.859 26.464 16.179 26.665 15.654 26.665C13.754 26.665 13.898 24.017 14.004 23.1C14.255 22.982 14.499 22.854 14.734 22.716C15.676 22.174 16.508 21.494 17.32 20.828C18.122 20.15 18.902 19.473 19.728 18.878C20.557 18.292 21.449 17.804 22.507 17.608C22.2395 17.5604 21.9675 17.5426 21.696 17.555C20.88 17.592 20.061 17.88 19.348 18.267C18.377 18.78 17.538 19.458 16.724 20.125C15.921 20.808 15.143 21.492 14.333 22.121C13.526 22.741 12.675 23.291 11.682 23.667ZM31.925 44.175C28.4879 46.6731 24.9096 48.9709 21.208 51.057C15.376 45.761 9.545 40.471 3.712 35.174C7.42189 33.0838 11.0079 30.781 14.452 28.277C14.827 28.416 15.228 28.504 15.655 28.504C16.093 28.504 16.552 28.428 17.036 28.28C14.2708 30.37 11.4061 32.3249 8.452 34.138C8.646 34.315 8.842 34.492 9.035 34.67C9.677 35.253 9.57 36.116 8.786 36.579C8.546 36.719 8.308 36.86 8.07 36.998L19.734 47.587C19.974 47.447 20.211 47.309 20.45 47.165C21.235 46.703 22.39 46.789 23.033 47.372L23.616 47.904C26.6596 46.0328 29.6083 44.0113 32.451 41.847C32.071 42.69 31.897 43.468 31.925 44.175ZM33.118 39.38C30.1194 41.7584 26.997 43.9765 23.764 46.025C22.692 45.442 21.272 45.345 20.067 45.751L10.588 37.148C11.37 36.357 11.497 35.283 10.932 34.381C14.3894 32.1936 17.721 29.8136 20.911 27.252C21.181 27.233 21.461 27.22 21.759 27.22C22.7692 27.2165 23.7753 27.3473 24.751 27.609L24.922 27.656C24.43 29.726 25.019 31.908 26.798 33.523C28.432 35.005 30.719 35.685 32.937 35.513C33.258 36.98 33.24 38.338 33.118 39.38ZM38.692 57.241C37.463 57.241 36.937 56.305 37.905 54.563C39.04 53.112 40.415 51.918 41.784 50.715C43.177 49.515 44.593 48.321 45.934 47.023C47.258 45.715 48.529 44.294 49.445 42.627C50.378 40.982 50.866 39.052 50.673 37.206C50.499 39.054 49.806 40.76 48.825 42.262C47.837 43.763 46.597 45.098 45.288 46.369C44.069 47.571 42.78 48.724 41.546 49.949C41.07 50.021 40.442 50.091 39.796 50.091C38.263 50.091 36.645 49.692 36.776 47.987C37.154 46.991 37.711 46.139 38.337 45.33C38.97 44.525 39.658 43.752 40.345 42.954C41.017 42.144 41.699 41.31 42.214 40.346C42.732 39.401 43.075 38.269 42.877 37.206C42.681 38.258 42.19 39.145 41.601 39.969C41.003 40.79 40.322 41.566 39.638 42.364C38.969 43.172 38.284 43.999 37.74 44.935C37.5998 45.1702 37.4713 45.4122 37.355 45.66C37.0489 45.6944 36.7411 45.7125 36.433 45.714C34.871 45.714 32.603 45.215 34.471 41.946C34.471 41.946 35.701 38.479 34.601 34.492C34.601 34.492 35.259 32.422 37.285 31.348C37.285 31.348 38.328 31.637 40.573 31.637C43.015 31.637 46.88 31.295 52.373 29.866C52.7934 29.7526 53.2266 29.6932 53.662 29.689C62.45 29.689 57.087 57.241 38.692 57.241Z" fill="#AF656D"/>
</svg>
