<svg width="33" height="39" viewBox="0 0 33 39" fill="none" xmlns="http://www.w3.org/2000/svg">
<path d="M10.5673 38.8873C9.28349 38.8177 8.0754 38.2579 7.19243 37.3233C6.13606 36.3071 5.19339 35.1789 4.38105 33.9587C3.11211 32.1416 2.10906 30.1527 1.40226 28.0521C0.602343 25.7923 0.18153 23.4157 0.156844 21.0186C0.0947005 18.6665 0.677182 16.3422 1.84122 14.2974C2.69377 12.8235 3.90981 11.5927 5.3733 10.7225C6.82061 9.85591 8.47217 9.38947 10.159 9.37088C11.4306 9.44611 12.6801 9.73676 13.8544 10.2304C14.7915 10.6428 15.7756 10.9328 16.7862 11.092C17.901 10.8585 18.9903 10.5166 20.0386 10.0712C21.2792 9.58675 22.5928 9.31548 23.9239 9.2688C24.1015 9.2688 24.2771 9.2688 24.4466 9.28922C27.3661 9.37292 30.0816 10.8062 31.7966 13.1684C30.4581 13.8843 29.3444 14.9573 28.5792 16.2682C27.814 17.579 27.4273 19.0764 27.4621 20.5939C27.4487 21.7543 27.6815 22.9043 28.145 23.9681C28.6084 25.032 29.2921 25.9855 30.151 26.7659C30.9329 27.5106 31.8432 28.1076 32.8378 28.5278C32.6336 29.1403 32.3988 29.7324 32.1498 30.3286C31.5842 31.646 30.8865 32.9026 30.0673 34.0791C29.2926 35.2577 28.3909 36.3477 27.3784 37.3295C26.4548 38.2459 25.2236 38.7866 23.9239 38.8464C22.8221 38.7976 21.7398 38.5391 20.7348 38.0849C19.6511 37.6128 18.4865 37.3542 17.3048 37.3233C16.0898 37.3473 14.8907 37.6044 13.7727 38.0808C12.8071 38.5165 11.7755 38.7877 10.7204 38.8832L10.5673 38.8873ZM16.9986 9.2688C16.8454 9.2688 16.6923 9.2688 16.5392 9.25042C16.507 9.0074 16.4899 8.76261 16.4881 8.51747C16.5549 6.47811 17.3519 4.53057 18.734 3.02947C19.507 2.16677 20.4439 1.46649 21.4902 0.969424C22.4652 0.467489 23.5308 0.165531 24.6242 0.0812988C24.6548 0.348757 24.6548 0.610091 24.6548 0.859174C24.6261 2.86647 23.8719 4.79556 22.5315 6.29001C21.8825 7.16021 21.0509 7.8778 20.095 8.3924C19.1392 8.907 18.0823 9.20614 16.9986 9.2688Z" fill="black"/>
</svg>
