<svg width="39" height="39" viewBox="0 0 39 39" fill="none" xmlns="http://www.w3.org/2000/svg">
<path d="M22.6665 34.3333H9.33317C5.33317 34.3333 2.6665 32.3333 2.6665 27.6667V18.3333C2.6665 13.6667 5.33317 11.6667 9.33317 11.6667H22.6665C26.6665 11.6667 29.3332 13.6667 29.3332 18.3333V27.6667C29.3332 32.3333 26.6665 34.3333 22.6665 34.3333Z" stroke="#131313" stroke-width="1.5" stroke-miterlimit="10" stroke-linecap="round" stroke-linejoin="round"/>
<path d="M22.6668 19L18.4935 22.3333C17.1202 23.4267 14.8668 23.4267 13.4935 22.3333L9.3335 19" stroke="#131313" stroke-width="1.5" stroke-miterlimit="10" stroke-linecap="round" stroke-linejoin="round"/>
<circle cx="28.5" cy="10.5" r="9.25" fill="#D0565C" stroke="#F9F9F9" stroke-width="2.5"/>
<path d="M25.18 14H31.384V12.764H27.736L29.644 10.904C30.664 9.92 31.324 8.948 31.324 7.832C31.324 6.32 30.268 5.3 28.492 5.3C26.68 5.3 25.552 6.38 25.444 8.252H26.908C27.052 7.04 27.592 6.548 28.444 6.548C29.272 6.548 29.728 7.052 29.728 7.856C29.728 8.672 29.236 9.428 28.42 10.292L25.18 13.712V14Z" fill="white"/>
</svg>
