<svg width="39" height="39" viewBox="0 0 39 39" fill="none" xmlns="http://www.w3.org/2000/svg">
<path d="M39 19.6194C39 8.78231 30.2689 -0.00244141 19.5 -0.00244141C8.72624 -3.90597e-06 -0.00488281 8.78231 -0.00488281 19.6219C-0.00488281 29.4133 7.12724 37.5302 16.4482 39.0024V25.2915H11.5001V19.6219H16.4531V15.2953C16.4531 10.3789 19.3659 7.6635 23.8192 7.6635C25.9545 7.6635 28.1848 8.04618 28.1848 8.04618V12.8724H25.7254C23.3049 12.8724 22.5493 14.3861 22.5493 15.9388V19.6194H27.9557L27.0928 25.2891H22.5469V39C31.8679 37.5277 39 29.4109 39 19.6194Z" fill="#3B5998"/>
</svg>
